<svg width="192" height="192" viewBox="0 0 192 192" fill="none" xmlns="http://www.w3.org/2000/svg">
<g clip-path="url(#clip0_0_1)">
<line x1="94.6169" y1="86.1341" x2="59.923" y2="31.1341" stroke="#7FD6E9" stroke-width="8"/>
<line x1="28.5085" y1="83.0481" x2="59.8147" y2="27.0482" stroke="#7FD6E9" stroke-width="8"/>
<line x1="163.743" y1="83.3224" x2="126.662" y2="31.3224" stroke="#7FD6E9" stroke-width="8"/>
<line x1="98.3958" y1="85.2651" x2="126.314" y2="27.2651" stroke="#7FD6E9" stroke-width="8"/>
<line x1="25" y1="85" x2="167" y2="85" stroke="#F7A8E1" stroke-width="8"/>
<line x1="28.2876" y1="85.7215" x2="98.2876" y2="186.721" stroke="#F7A8E1" stroke-width="8"/>
<line x1="163.286" y1="86.2803" x2="95.2864" y2="184.28" stroke="#F7A8E1" stroke-width="8"/>
<path d="M92.728 37.432C92.728 35.4693 92.9627 33.7627 93.432 32.312C93.944 30.8613 94.5627 29.6453 95.288 28.664C96.0133 27.6827 96.952 26.5733 98.104 25.336C99.2987 24.056 100.131 23.0747 100.6 22.392C101.837 20.6427 102.456 18.8293 102.456 16.952C102.456 14.9893 101.795 13.3467 100.472 12.024C99.192 10.7013 97.6773 10.04 95.928 10.04C93.88 10.04 92.1947 10.6373 90.872 11.832C89.592 13.0267 88.952 14.7333 88.952 16.952H84.344C84.344 14.904 84.7707 13.0267 85.624 11.32C86.4773 9.57067 87.7573 8.184 89.464 7.16C91.2133 6.136 93.304 5.624 95.736 5.624C97.8693 5.624 99.8107 6.15733 101.56 7.224C103.309 8.248 104.696 9.63467 105.72 11.384C106.744 13.0907 107.256 14.968 107.256 17.016C107.256 19.5333 106.488 21.9013 104.952 24.12C104.013 25.4427 102.84 26.808 101.432 28.216C100.365 29.2827 99.5547 30.2 99 30.968C98.488 31.736 98.04 32.7813 97.656 34.104C97.3147 35.4267 97.144 37.176 97.144 39.352C97.144 39.352 97.144 40.1413 97.144 41.72V43.384H92.728V37.432ZM97.336 48.568C97.336 49.2507 97.1013 49.8267 96.632 50.296C96.1627 50.7653 95.5867 51 94.904 51C94.2213 51 93.6453 50.7653 93.176 50.296C92.7067 49.8267 92.472 49.2507 92.472 48.568C92.472 47.8853 92.7067 47.3093 93.176 46.84C93.6453 46.3707 94.2213 46.136 94.904 46.136C95.5867 46.136 96.1627 46.3707 96.632 46.84C97.1013 47.3093 97.336 47.8853 97.336 48.568Z" fill="#EBFEFF"/>
</g>
<defs>
<clipPath id="clip0_0_1">
<rect width="192" height="192" fill="white"/>
</clipPath>
</defs>
</svg>
