<svg width="512" height="512" viewBox="0 0 512 512" fill="none" xmlns="http://www.w3.org/2000/svg">
<g clip-path="url(#clip0_0_1)">
<line x1="255.544" y1="209.013" x2="167.584" y2="58.0134" stroke="#7FD6E9" stroke-width="8"/>
<line x1="88.4462" y1="207.164" x2="167.487" y2="54.1641" stroke="#7FD6E9" stroke-width="8"/>
<line x1="421.489" y1="207.916" x2="339.611" y2="57.9165" stroke="#7FD6E9" stroke-width="8"/>
<line x1="256.48" y1="208.1" x2="339.602" y2="54.1001" stroke="#7FD6E9" stroke-width="8"/>
<line x1="85.0161" y1="207.628" x2="426.016" y2="209" stroke="#F7A8E1" stroke-width="8"/>
<line x1="88.2866" y1="209.669" x2="258.287" y2="454.72" stroke="#F7A8E1" stroke-width="8"/>
<line x1="422.334" y1="210.21" x2="257.334" y2="459.21" stroke="#F7A8E1" stroke-width="8"/>
<path d="M247.456 71.864C247.456 67.9387 247.925 64.5253 248.864 61.624C249.888 58.7227 251.125 56.2907 252.576 54.328C254.027 52.3653 255.904 50.1467 258.208 47.672C260.597 45.112 262.261 43.1493 263.2 41.784C265.675 38.2853 266.912 34.6587 266.912 30.904C266.912 26.9787 265.589 23.6933 262.944 21.048C260.384 18.4027 257.355 17.08 253.856 17.08C249.76 17.08 246.389 18.2747 243.744 20.664C241.184 23.0533 239.904 26.4667 239.904 30.904H230.688C230.688 26.808 231.541 23.0533 233.248 19.64C234.955 16.1413 237.515 13.368 240.928 11.32C244.427 9.27199 248.608 8.24799 253.472 8.24799C257.739 8.24799 261.621 9.31466 265.12 11.448C268.619 13.496 271.392 16.2693 273.44 19.768C275.488 23.1813 276.512 26.936 276.512 31.032C276.512 36.0667 274.976 40.8027 271.904 45.24C270.027 47.8853 267.68 50.616 264.864 53.432C262.731 55.5653 261.109 57.4 260 58.936C258.976 60.472 258.08 62.5627 257.312 65.208C256.629 67.8533 256.288 71.352 256.288 75.704C256.288 75.704 256.288 77.2827 256.288 80.44V83.768H247.456V71.864ZM256.672 94.136C256.672 95.5013 256.203 96.6533 255.264 97.592C254.325 98.5307 253.173 99 251.808 99C250.443 99 249.291 98.5307 248.352 97.592C247.413 96.6533 246.944 95.5013 246.944 94.136C246.944 92.7707 247.413 91.6187 248.352 90.68C249.291 89.7413 250.443 89.272 251.808 89.272C253.173 89.272 254.325 89.7413 255.264 90.68C256.203 91.6187 256.672 92.7707 256.672 94.136Z" fill="#EBFEFF"/>
</g>
<defs>
<clipPath id="clip0_0_1">
<rect width="512" height="512" fill="white"/>
</clipPath>
</defs>
</svg>
