<svg width="32" height="32" viewBox="0 0 32 32" fill="none" xmlns="http://www.w3.org/2000/svg">
<g clip-path="url(#clip0_0_1)">
<line x1="15.5782" y1="12.2684" x2="8.57817" y2="1.26844" stroke="#62CBDA"/>
<line x1="29.5611" y1="12.2394" x2="23.5611" y2="1.23943" stroke="#62CBDA"/>
<line x1="1.57817" y1="12.7316" x2="8.57817" y2="1.73156" stroke="#62CBDA"/>
<line x1="15.5956" y1="12.7059" x2="23.5956" y2="1.70591" stroke="#62CBDA"/>
<line x1="1" y1="12.5" x2="30" y2="12.5" stroke="#F487E9"/>
<line x1="1.39244" y1="12.6902" x2="16.3924" y2="31.6902" stroke="#F487E9"/>
<line x1="30.4096" y1="12.2867" x2="16.4096" y2="32.2867" stroke="#F487E9"/>
<path d="M15.968 6.456C15.968 6.096 16.012 5.784 16.1 5.52C16.196 5.256 16.308 5.04 16.436 4.872C16.564 4.704 16.736 4.504 16.952 4.272C17.2 4.008 17.36 3.824 17.432 3.72C17.696 3.352 17.828 2.976 17.828 2.592C17.828 2.184 17.688 1.84 17.408 1.56C17.136 1.272 16.808 1.128 16.424 1.128C16.016 1.128 15.668 1.256 15.38 1.512C15.1 1.76 14.96 2.128 14.96 2.616H14.288C14.288 2.232 14.368 1.88 14.528 1.56C14.688 1.232 14.928 0.972 15.248 0.779999C15.576 0.587999 15.968 0.491999 16.424 0.491999C16.816 0.491999 17.172 0.587999 17.492 0.779999C17.82 0.972 18.076 1.228 18.26 1.548C18.444 1.868 18.536 2.216 18.536 2.592C18.536 3.072 18.388 3.524 18.092 3.948C17.916 4.204 17.688 4.464 17.408 4.728C17.208 4.928 17.056 5.1 16.952 5.244C16.848 5.388 16.76 5.584 16.688 5.832C16.616 6.08 16.58 6.408 16.58 6.816C16.58 6.816 16.58 6.964 16.58 7.26V7.572H15.968V6.456ZM16.268 9C16.164 9 16.072 8.96 15.992 8.88C15.912 8.8 15.872 8.708 15.872 8.604C15.872 8.492 15.912 8.4 15.992 8.328C16.072 8.248 16.164 8.208 16.268 8.208C16.38 8.208 16.472 8.248 16.544 8.328C16.624 8.4 16.664 8.492 16.664 8.604C16.664 8.708 16.624 8.8 16.544 8.88C16.472 8.96 16.38 9 16.268 9Z" fill="white"/>
</g>
<defs>
<clipPath id="clip0_0_1">
<rect width="32" height="32" fill="white"/>
</clipPath>
</defs>
</svg>
